{
	"asset":{
		"generator":"Khronos glTF Blender I/O v4.0.44",
		"version":"2.0"
	},
	"scene":0,
	"scenes":[
		{
			"name":"Scene",
			"nodes":[
				5
			]
		}
	],
	"nodes":[
		{
			"mesh":0,
			"name":"Object_2"
		},
		{
			"mesh":1,
			"name":"Object_3"
		},
		{
			"mesh":2,
			"name":"Object_4"
		},
		{
			"mesh":3,
			"name":"Object_5"
		},
		{
			"children":[
				0,
				1,
				2,
				3
			],
			"name":"ceiling-lamp.obj.cleaner.materialmerger.gles"
		},
		{
			"children":[
				4
			],
			"name":"Sketchfab_model",
			"rotation":[
				-0.70710688829422,
				0,
				0,
				0.7071066498756409
			]
		}
	],
	"materials":[
		{
			"doubleSided":true,
			"name":"metal",
			"pbrMetallicRoughness":{
				"baseColorFactor":[
					0.32157498598098755,
					0.32157498598098755,
					0.32157498598098755,
					1
				],
				"metallicFactor":0,
				"roughnessFactor":0.9491099119186401
			}
		},
		{
			"doubleSided":true,
			"name":"metal-ball",
			"pbrMetallicRoughness":{
				"baseColorFactor":[
					0.3074989914894104,
					0.3074989914894104,
					0.3074989914894104,
					1
				],
				"metallicFactor":0,
				"roughnessFactor":0.7362691760063171
			}
		},
		{
			"alphaMode":"BLEND",
			"doubleSided":true,
			"name":"white-lamp",
			"pbrMetallicRoughness":{
				"baseColorFactor":[
					0.8199999928474426,
					0.8199999928474426,
					0.8199999928474426,
					0.5
				],
				"metallicFactor":0,
				"roughnessFactor":0.6690248847007751
			}
		},
		{
			"doubleSided":true,
			"name":"white-metal",
			"pbrMetallicRoughness":{
				"baseColorFactor":[
					0.6839830279350281,
					0.6839830279350281,
					0.6839830279350281,
					1
				],
				"metallicFactor":0,
				"roughnessFactor":0.9768276214599609
			}
		}
	],
	"meshes":[
		{
			"name":"Object_0",
			"primitives":[
				{
					"attributes":{
						"POSITION":0,
						"NORMAL":1
					},
					"indices":2,
					"material":0
				}
			]
		},
		{
			"name":"Object_1",
			"primitives":[
				{
					"attributes":{
						"POSITION":3,
						"NORMAL":4
					},
					"indices":5,
					"material":1
				}
			]
		},
		{
			"name":"Object_2",
			"primitives":[
				{
					"attributes":{
						"POSITION":6,
						"NORMAL":7
					},
					"indices":8,
					"material":2
				}
			]
		},
		{
			"name":"Object_3",
			"primitives":[
				{
					"attributes":{
						"POSITION":9,
						"NORMAL":10
					},
					"indices":11,
					"material":3
				}
			]
		}
	],
	"accessors":[
		{
			"bufferView":0,
			"componentType":5126,
			"count":480,
			"max":[
				15,
				15,
				3.5066139698028564
			],
			"min":[
				-15,
				-15,
				0
			],
			"type":"VEC3"
		},
		{
			"bufferView":1,
			"componentType":5126,
			"count":480,
			"type":"VEC3"
		},
		{
			"bufferView":2,
			"componentType":5123,
			"count":2844,
			"type":"SCALAR"
		},
		{
			"bufferView":3,
			"componentType":5126,
			"count":342,
			"max":[
				12.613316535949707,
				7.407607078552246,
				-0.007937000133097172
			],
			"min":[
				-12.613321304321289,
				-14.521299362182617,
				-0.5188419818878174
			],
			"type":"VEC3"
		},
		{
			"bufferView":4,
			"componentType":5126,
			"count":342,
			"type":"VEC3"
		},
		{
			"bufferView":5,
			"componentType":5123,
			"count":2016,
			"type":"SCALAR"
		},
		{
			"bufferView":6,
			"componentType":5126,
			"count":194,
			"max":[
				13.511430740356445,
				13.511439323425293,
				0.1225999966263771
			],
			"min":[
				-13.511434555053711,
				-13.511425018310547,
				-1.9032809734344482
			],
			"type":"VEC3"
		},
		{
			"bufferView":7,
			"componentType":5126,
			"count":194,
			"type":"VEC3"
		},
		{
			"bufferView":8,
			"componentType":5123,
			"count":1152,
			"type":"SCALAR"
		},
		{
			"bufferView":9,
			"componentType":5126,
			"count":29,
			"max":[
				13.866697311401367,
				13.850886344909668,
				2.861776113510132
			],
			"min":[
				-13.850886344909668,
				-13.810338020324707,
				2.786613941192627
			],
			"type":"VEC3"
		},
		{
			"bufferView":10,
			"componentType":5126,
			"count":29,
			"type":"VEC3"
		},
		{
			"bufferView":11,
			"componentType":5123,
			"count":162,
			"type":"SCALAR"
		}
	],
	"bufferViews":[
		{
			"buffer":0,
			"byteLength":5760,
			"byteOffset":0,
			"target":34962
		},
		{
			"buffer":0,
			"byteLength":5760,
			"byteOffset":5760,
			"target":34962
		},
		{
			"buffer":0,
			"byteLength":5688,
			"byteOffset":11520,
			"target":34963
		},
		{
			"buffer":0,
			"byteLength":4104,
			"byteOffset":17208,
			"target":34962
		},
		{
			"buffer":0,
			"byteLength":4104,
			"byteOffset":21312,
			"target":34962
		},
		{
			"buffer":0,
			"byteLength":4032,
			"byteOffset":25416,
			"target":34963
		},
		{
			"buffer":0,
			"byteLength":2328,
			"byteOffset":29448,
			"target":34962
		},
		{
			"buffer":0,
			"byteLength":2328,
			"byteOffset":31776,
			"target":34962
		},
		{
			"buffer":0,
			"byteLength":2304,
			"byteOffset":34104,
			"target":34963
		},
		{
			"buffer":0,
			"byteLength":348,
			"byteOffset":36408,
			"target":34962
		},
		{
			"buffer":0,
			"byteLength":348,
			"byteOffset":36756,
			"target":34962
		},
		{
			"buffer":0,
			"byteLength":324,
			"byteOffset":37104,
			"target":34963
		}
	],
	"buffers":[
		{
			"byteLength":37428,
			"uri":"scene2.bin"
		}
	]
}
